<svg xmlns="http://www.w3.org/2000/svg" viewBox="-153 -46 652 652"><path d="M-83.8 274.3c.8-.4 1.4-.9 2-1.4 1.7-1.7 2.6-4.2 2.6-7.5V261c0-4.3-1-7.2-3-8.8-1.9-1.5-5.1-2.3-9.7-2.3h-25.9c-4.7 0-7.8.8-9.7 2.3-2 1.6-2.9 4.5-2.9 8.8v4.4l12.9 2.4v-6.3h21.9c1.9 0 2.4.3 2.4.3.1.1.4.6.4 2.3v2.4c0 1.2-.2 1.8-.3 2.1-.1.1-.7.6-2.6.6h-16.1v11.2h17.9c1.7 0 2.4.3 2.5.4 0 0 .4.4.4 2.2v3.5c0 1.7-.4 2.1-.4 2.2 0 0-.5.4-2.5.4H-118V282l-13.3 2.8v5.3c0 4.3 1 7.2 2.9 8.8 1.9 1.5 5.1 2.3 9.7 2.3h27.8c5 0 8.5-.9 10.4-2.9 1.9-1.8 2.9-4.8 2.9-9.2v-5c.2-3.4-1.1-7.5-6.2-9.8" fill="#fcb514"/><path d="M-21.6 274.9c3.4-2 4.3-5.3 4.3-8.1V261c0-5-2.2-11-12.5-11h-42.7v51.3h39.8c13.1 0 15.8-6 15.8-11.1V284c0-4.2-1.6-7.3-4.7-9.1m-36.5 5.6h23.7c2.2 0 2.9.3 3 .4.6.4.7 1.4.7 2.2v3.6c0 .8-.1 1.8-.6 2.1-.2.1-.9.4-3 .4H-58v-8.7zm27.1-13.1c0 .6 0 1.7-3.4 1.7h-23.7v-8h23.7c3.4 0 3.4 1.2 3.4 1.7v4.6zm68.5-17.5H2.3c-5.1 0-8.5.9-10.5 2.8-2.1 1.9-3.1 5.3-3.1 10.3v25.2c0 5 1 8.4 3.1 10.3 2 1.9 5.5 2.8 10.5 2.8h35.3c5.1 0 8.5-.9 10.5-2.8 2.1-1.9 3.1-5.3 3.1-10.3V263c0-5-1-8.4-3.1-10.3-2.1-1.9-5.5-2.8-10.6-2.8m-1 38.9H3.2v-26.9h33.3v26.9zm67.3-20.3H72.5v-18.6H57.9v51.3h14.6v-20.6h31.3v20.6h14.7v-51.3h-14.7zm35.3 11.9h22.1v-11.7h-22.1v-7.2H177v-11.6h-52.5v51.3h52.9v-12.4h-38.3zm77.1-2.6l-21.7-27.9H183v51.3h12.4v-29.8l18 24.1h4l17.8-23.7v29.4H249v-51.3h-11.5zm37.8-27.9h14.6v51.3H254zm47.5 0l-29 51.3h15.1l5.6-10.5h28.3l5.8 10.5h16.5l-29.4-51.3h-12.9zm13.4 28.8h-15.2l7.7-14.1 7.5 14.1zm79.6-1.9c0 .7.1 1.9.2 3.8-.7-.6-1.5-1.3-2.3-2.1l-34.2-28.6h-10v51.3h13.5v-27.6c0-.9 0-1.9-.1-3.1.3.2.5.4.8.7l35.2 29.6.5.4h10v-51.3h-13.5v26.9zm71.1-5.5c-2.1-1.9-5.5-2.8-10.6-2.8h-28.2v-6.8h28v5.9l13.3-3.1v-2.4c0-4.6-1.1-7.7-3.3-9.6-2.1-1.8-5.5-2.6-10.3-2.6h-27.2c-5.1 0-8.5.9-10.5 2.8-2.1 1.9-3.1 5.3-3.1 10.3v5.3c0 5 1 8.4 3.1 10.3 2 1.9 5.5 2.8 10.5 2.8h28.1v7.5H425v-6.1l-13.3 2.8v2.7c0 5 1 8.4 3.1 10.3 2 1.9 5.5 2.8 10.6 2.8H455c5.1 0 8.5-.9 10.6-2.8 2.1-1.9 3.1-5.3 3.1-10.3v-6.6c.1-5.1-1-8.5-3.1-10.4" fill="#020000"/></svg>