<svg xmlns="http://www.w3.org/2000/svg" width="110" height="110" viewBox="0 0 110 110"><path fill="none" d="M0 0h110v110H0z"/><linearGradient id="a" gradientUnits="userSpaceOnUse" x1="7.002" y1="6.2" x2="7.002" y2="107.8" gradientTransform="matrix(1 0 0 -1 0 112)"><stop offset="0" stop-color="#009b48"/><stop offset=".091" stop-color="#1aa33f"/><stop offset=".331" stop-color="#57b82a"/><stop offset=".55" stop-color="#88c819"/><stop offset=".742" stop-color="#acd30d"/><stop offset=".898" stop-color="#c1da06"/><stop offset="1" stop-color="#c9dd03"/></linearGradient><path d="M8.5 65.7c.8-.8.7-2.1-.1-2.8-.8-.8-2.1-.7-2.8.1-.8.8-.7 2.1.1 2.8.8.7 2.1.7 2.8-.1z" fill="url(#a)"/><linearGradient id="b" gradientUnits="userSpaceOnUse" x1="5.002" y1="6.2" x2="5.002" y2="107.8" gradientTransform="matrix(1 0 0 -1 0 112)"><stop offset="0" stop-color="#009b48"/><stop offset=".091" stop-color="#1aa33f"/><stop offset=".331" stop-color="#57b82a"/><stop offset=".55" stop-color="#88c819"/><stop offset=".742" stop-color="#acd30d"/><stop offset=".898" stop-color="#c1da06"/><stop offset="1" stop-color="#c9dd03"/></linearGradient><path d="M6.4 72.3c-.8-.8-2.1-.7-2.8.1-.8.8-.7 2.1.1 2.8.8.8 2.1.7 2.8-.1.8-.8.7-2.1-.1-2.8z" fill="url(#b)"/><linearGradient id="c" gradientUnits="userSpaceOnUse" x1="51.903" y1="6.2" x2="51.903" y2="107.8" gradientTransform="matrix(1 0 0 -1 0 112)"><stop offset="0" stop-color="#009b48"/><stop offset=".091" stop-color="#1aa33f"/><stop offset=".331" stop-color="#57b82a"/><stop offset=".55" stop-color="#88c819"/><stop offset=".742" stop-color="#acd30d"/><stop offset=".898" stop-color="#c1da06"/><stop offset="1" stop-color="#c9dd03"/></linearGradient><path d="M95.9 76.8c0-7.8-3-22-23.3-28.7-2.4-.8-4.9-1.5-7.5-2.2-13.9-3.8-21-6.7-21-12 0-3.5 1.2-5.7 4.2-7.3 3.2-1.8 7.5-2.4 10.5-2.4 5 0 11.1 1.1 22.6 8.6 4.6 3 10.9 1.7 13.9-2.9S97 19 92.4 16C79.7 7.7 69.7 4.2 58.8 4.2h-.1c-3.4 0-12.2.5-20.2 4.9-9.4 5.2-14.6 14-14.6 24.9 0 21.5 22.4 27.6 35.7 31.4 2.4.7 4.7 1.3 6.6 1.9 9.5 3.1 9.5 7.5 9.5 9.6 0 .2-.1 2.5-2.6 4.8-2.1 1.9-6.3 4.1-14.4 4.1-15.4 0-24.8-9.5-25.2-9.9L23 66.1l-.4-.4c-.8-.7-2-.7-2.8.1-.7.8-.7 2 .1 2.8l2.7 2.6c.8.7.9 2 .1 2.8-.7.8-2 .9-2.8.1L13 67.3c-.8-.7-2-.7-2.8.1-.7.8-.7 2 .1 2.8l5.1 5.2c.8.7.9 2 .1 2.8-.7.8-2 .9-2.8.1L10.3 76c-.8-.7-2-.7-2.8.1-.7.8-.7 2 .1 2.8L8.9 80 19 89.5c.7.7 15.6 16.3 39.8 16.3 27.2 0 37.1-17.4 37.1-29zm-72.3 9c-.7.9-2 .9-2.8.1l-3.1-3c-.8-.8-.9-2.1-.1-2.9.7-.8 2-.9 2.8-.1l3.1 3c.8.8.9 2.1.1 2.9z" fill="url(#c)"/></svg>