<svg xmlns="http://www.w3.org/2000/svg" viewBox="0 0 800 800"><path d="M722.5 800h-645C34.9 800 0 765.1 0 722.5v-645C0 34.9 34.9 0 77.5 0h645.1C765.1 0 800 34.9 800 77.5v645.1c0 42.5-34.9 77.4-77.5 77.4z" fill="#4ea9f4"/><path d="M604.4 638.2l46.4 46.3c.5.5 1.3.8 2 .8h1.3c1.6 0 2.8-1.3 2.8-2.8v-81.2c0-1.6-1.3-2.8-2.8-2.8h-13.3c-1.6 0-2.8 1.3-2.8 2.8v42.2c0 .9-1 1.3-1.7.7l-46.2-45c-.5-.5-1.2-.8-2-.8h-.8c-1.6 0-2.8 1.3-2.8 2.8v81.2c0 1.6 1.3 2.8 2.8 2.8h12.6c1.6 0 2.8-1.3 2.8-2.8v-43.6c0-.8 1.1-1.2 1.7-.6zm-85.9-39.8c-24.1 0-43.7 19.6-43.7 43.7s19.6 43.7 43.7 43.7 43.7-19.6 43.7-43.7-19.6-43.7-43.7-43.7zm0 68.9c-13.9 0-25.1-11.3-25.1-25.1 0-13.9 11.3-25.1 25.1-25.1 13.9 0 25.1 11.3 25.1 25.1s-11.2 25.1-25.1 25.1zm-89.2-3v-62.7c0-1.6-1.3-2.9-2.9-2.9h-13.2c-1.6 0-2.9 1.3-2.9 2.9v81.2c0 1.6 1.3 2.9 2.9 2.9h44.9c1.6 0 2.9-1.3 2.9-2.9V670c0-1.6-1.3-2.9-2.9-2.9h-26c-1.6.1-2.8-1.2-2.8-2.8zm-77.8-21.8l19 42.1c.3.8 1.1 1.3 1.9 1.3h15.3c1.6 0 2.6-1.6 2-3l-38-82.9c-.8-1.7-3.1-1.7-3.9 0l-39.2 82.7c-.7 1.4.4 3.1 1.9 3.1h16.4c.8 0 1.6-.5 2-1.3l18.7-42c.8-1.7 3.2-1.7 3.9 0zm-86.6-.4l-19-42.1c-.3-.8-1.1-1.3-1.9-1.3h-15.3c-1.6 0-2.6 1.6-2 3l38 82.9c.8 1.7 3.1 1.7 3.9 0l39.2-82.7c.7-1.4-.4-3.1-1.9-3.1h-16.4c-.8 0-1.6.5-2 1.3l-18.7 42c-.7 1.7-3.1 1.7-3.9 0zm-78.4.4l19 42.1c.3.8 1.1 1.3 1.9 1.3h15.3c1.6 0 2.6-1.6 2-3l-38-82.9c-.8-1.7-3.1-1.7-3.9 0l-39.2 82.7c-.7 1.4.4 3.1 1.9 3.1h16.4c.8 0 1.6-.5 2-1.3l18.7-42c.7-1.7 3.1-1.7 3.9 0zM399.7 83.9c-15 0-30 18.9-38.9 28.7-18.7 20.7-34.9 43.7-50 67.2-24.5 38.2-58.5 87-60.7 133.9-1.7 36.9 0 74.2 0 111.1v62.8c0 17.6 3.8 29.3 22.2 37.2 30.3 13 62.9 26 95 36.1 10.1 3.2 19.1-4.2 19.4-14.8.1-3.2.2-25.7.2-28.9.5-23.8.2-39.1-9.6-60.9-10.6-23.6-40.5-53.6-56.8-74.3-2.4-3 1.5-7 4.6-4.6 16.8 13.1 45.1 37.6 58.1 53.9 1.9 2.4 5.8 1.1 5.8-2 .6-60.4 1.9-110.4 7.3-170.7.4-4 6.2-4 6.5 0 3.2 37.9 4.8 76 5.9 114 .1 3 3.8 4.3 5.8 2 10.8-12.8 35.3-36.7 48.2-47.7 3.1-2.6 7.2 1.6 4.6 4.6-18.8 21.6-50.2 57-52.8 83.9-4.3 43.9-.5 89.5-.3 133.9 0 8.4 8.4 14.2 16.3 11.2 30.4-11.5 60.4-24.9 90.2-37.7 15.2-6.5 25.3-15 25.8-32.4.5-18.3 0-36.7 0-55 0-40.1 2.2-80.9 0-121-2.2-41-30.1-84.1-50.5-118.2-15.9-26.5-33-52.5-52.6-76.3-9.4-11.4-26.7-36-43.7-36z"/></svg>